<svg id="np_ico" data-name="Слой 1" xmlns="http://www.w3.org/2000/svg" viewBox="0 0 24 24" width="16"><defs><style> .cls-1{fill:#da291c;}</style></defs><title>дщп</title><path class="cls-1" d="M10.43,6.17v4.15h3V6.17h3L13.19,2.89a1.68,1.68,0,0,0-2.4,0L7.53,6.17Z"/><path class="cls-1" d="M6.88,6.82,2.27,11.4a1,1,0,0,0,0,1.34l4.59,4.58V6.82Z"/><path class="cls-1" d="M21.73,11.4,17,6.72V17.44l4.68-4.68A1,1,0,0,0,21.73,11.4Z"/><path class="cls-1" d="M13.47,18.12V14h-3v4.14H7.66L10.55,21a2.1,2.1,0,0,0,2.92,0l2.89-2.9Z"/></svg>