<?xml version="1.0" encoding="utf-8"?>
<!-- Generator: Adobe Illustrator 24.0.2, SVG Export Plug-In . SVG Version: 6.00 Build 0)  -->
<svg version="1.1" id="Слой_1" xmlns="http://www.w3.org/2000/svg" xmlns:xlink="http://www.w3.org/1999/xlink" x="0px" y="0px"
	 viewBox="0 0 24 24" style="enable-background:new 0 0 24 24;" xml:space="preserve" width="19">
<style type="text/css">
	.st10{fill:#515151;}
</style>
<path class="st10" d="M20.29,19.81H9.09c-0.96,0-1.75-0.79-1.75-1.75v-4.65c0-0.96,0.79-1.75,1.75-1.75h11.21
	c0.96,0,1.75,0.79,1.75,1.75v4.65C22.04,19.03,21.26,19.81,20.29,19.81z M9.09,13.16c-0.14,0-0.25,0.11-0.25,0.25v4.65
	c0,0.14,0.11,0.25,0.25,0.25h11.21c0.14,0,0.25-0.11,0.25-0.25v-4.65c0-0.14-0.11-0.25-0.25-0.25H9.09z"/>
<path d="M15.77,15.95c-0.05-0.12-0.11-0.22-0.2-0.31c-0.09-0.09-0.2-0.16-0.33-0.22c-0.06-0.03-0.17-0.06-0.34-0.1v-0.94
	c0.06,0.02,0.1,0.06,0.14,0.1c0.06,0.07,0.1,0.17,0.12,0.31l0.01,0.09l0.59-0.09l-0.01-0.09c-0.04-0.27-0.15-0.49-0.35-0.65
	c-0.13-0.11-0.3-0.18-0.51-0.21v-0.2h-0.42v0.2c-0.24,0.04-0.43,0.11-0.56,0.23c-0.22,0.19-0.33,0.45-0.33,0.75
	c0,0.17,0.04,0.33,0.11,0.47c0.08,0.14,0.19,0.25,0.33,0.33c0.15,0.09,0.3,0.15,0.45,0.18v1.07c-0.09-0.03-0.16-0.09-0.23-0.18
	c-0.07-0.09-0.12-0.23-0.14-0.42l-0.01-0.1l-0.58,0.11l0.01,0.08c0.02,0.22,0.07,0.41,0.17,0.56c0.1,0.16,0.22,0.27,0.36,0.34
	c0.12,0.06,0.26,0.1,0.43,0.13v0.41h0.42V17.4c0.26-0.03,0.48-0.14,0.65-0.32c0.19-0.2,0.29-0.45,0.29-0.75
	C15.84,16.2,15.82,16.07,15.77,15.95z M15.25,16.36c0,0.15-0.04,0.26-0.13,0.36c-0.06,0.07-0.13,0.12-0.22,0.15v-0.96
	c0.15,0.06,0.23,0.12,0.26,0.16C15.22,16.14,15.25,16.24,15.25,16.36z M14.48,14.37v0.84c-0.1-0.04-0.17-0.09-0.22-0.15
	c-0.06-0.07-0.09-0.17-0.09-0.28c0-0.11,0.04-0.21,0.11-0.29C14.33,14.44,14.4,14.4,14.48,14.37z"/>
<path class="st10" d="M17.57,3.61H4.71c-1.52,0-2.75,1.23-2.75,2.75v9.5c0,1.52,1.23,2.75,2.75,2.75h1.21v-1.5H4.71
	c-0.69,0-1.25-0.56-1.25-1.25v-9.5c0-0.13,0.04-0.24,0.07-0.35l5.9,3.98c0.51,0.41,1.12,0.61,1.73,0.61c0.59,0,1.18-0.19,1.66-0.58
	l5.93-4.06c0.04,0.13,0.08,0.26,0.08,0.4v4.03h1.5V6.36C20.32,4.85,19.09,3.61,17.57,3.61z M11.92,8.82
	c-0.46,0.37-1.1,0.37-1.61-0.04L4.88,5.11h12.45L11.92,8.82z"/>
</svg>
