<?xml version="1.0" encoding="utf-8"?>
<!-- Generator: Adobe Illustrator 24.0.2, SVG Export Plug-In . SVG Version: 6.00 Build 0)  -->
<svg version="1.1" id="Слой_1" xmlns="http://www.w3.org/2000/svg" xmlns:xlink="http://www.w3.org/1999/xlink" x="0px" y="0px"
	 viewBox="0 0 24 24" style="enable-background:new 0 0 24 24;" xml:space="preserve" width="19">
<style type="text/css">
	.st_{
		fill: #008000;
	}

</style>
<path class="st_" d="M12,21.07C7,21.07,2.93,17,2.93,12C2.93,7,7,2.93,12,2.93S21.07,7,21.07,12C21.07,17,17,21.07,12,21.07z M12,4.43
	c-4.17,0-7.57,3.4-7.57,7.57c0,4.17,3.4,7.57,7.57,7.57s7.57-3.4,7.57-7.57C19.57,7.83,16.17,4.43,12,4.43z"/>
<path class="st_" d="M14.62,12.55c-0.11-0.28-0.27-0.53-0.48-0.74c-0.2-0.21-0.47-0.38-0.79-0.52c-0.15-0.06-0.41-0.15-0.81-0.25V8.78
	c0.13,0.06,0.25,0.14,0.34,0.24c0.15,0.16,0.25,0.41,0.3,0.74l0.03,0.22l1.42-0.21l-0.03-0.22c-0.09-0.65-0.37-1.18-0.83-1.56
	c-0.32-0.26-0.73-0.44-1.23-0.51V7h-1.01v0.48c-0.58,0.08-1.03,0.27-1.35,0.55C9.65,8.48,9.38,9.09,9.38,9.83
	c0,0.42,0.09,0.79,0.27,1.13c0.18,0.33,0.45,0.6,0.79,0.79c0.36,0.2,0.73,0.35,1.08,0.44v2.56c-0.21-0.07-0.39-0.21-0.56-0.42
	c-0.16-0.21-0.28-0.55-0.34-1.02l-0.03-0.23L9.2,13.33l0.01,0.2c0.04,0.53,0.18,0.98,0.41,1.35c0.24,0.37,0.53,0.65,0.86,0.82
	c0.28,0.14,0.62,0.25,1.04,0.31V17h1.01v-0.98c0.63-0.07,1.15-0.33,1.56-0.76c0.46-0.48,0.69-1.09,0.69-1.8
	C14.78,13.14,14.73,12.83,14.62,12.55z M13.36,13.53c0,0.35-0.1,0.64-0.3,0.87c-0.15,0.17-0.32,0.28-0.52,0.35v-2.29
	c0.37,0.15,0.54,0.29,0.62,0.38C13.29,13.01,13.36,13.24,13.36,13.53z M11.52,8.75v2.02c-0.24-0.1-0.41-0.21-0.52-0.35
	c-0.15-0.18-0.22-0.4-0.22-0.67c0-0.27,0.09-0.5,0.26-0.7C11.17,8.92,11.33,8.81,11.52,8.75z"/>
</svg>
