<?xml version="1.0" encoding="utf-8"?>
<!-- Generator: Adobe Illustrator 24.0.2, SVG Export Plug-In . SVG Version: 6.00 Build 0)  -->
<svg version="1.1" id="Слой_1" xmlns="http://www.w3.org/2000/svg" xmlns:xlink="http://www.w3.org/1999/xlink" x="0px" y="0px"
	 viewBox="0 0 24 24" style="enable-background:new 0 0 24 24;" xml:space="preserve" width="19">
<style type="text/css">
	.st10{fill:#4285f4;}
</style>
<path class="st10" d="M13.38,16.2c0,0.28,0.27,0.51,0.61,0.51h2.36h2.36c0.34,0,0.61-0.23,0.61-0.51v-0.51
	c0-0.28-0.27-0.51-0.61-0.51h-2.36h-2.36c-0.34,0-0.61,0.23-0.61,0.51V16.2z"/>
<path class="st10" d="M19.25,4.75H4.75C3.23,4.75,2,5.98,2,7.5v1.57C2,9.09,1.98,9.1,1.98,9.13S2,9.17,2,9.19v7.21
	c0,1.52,1.23,2.75,2.75,2.75h14.5c1.52,0,2.75-1.23,2.75-2.75V7.5C22,5.98,20.77,4.75,19.25,4.75z M4.75,6.25h14.5
	c0.69,0,1.25,0.56,1.25,1.25v0.88h-17V7.5C3.5,6.81,4.06,6.25,4.75,6.25z M19.25,17.65H4.75c-0.69,0-1.25-0.56-1.25-1.25V9.88h17
	v6.53C20.5,17.09,19.94,17.65,19.25,17.65z"/>
</svg>
