<?xml version="1.0" encoding="utf-8"?>
<!-- Generator: Adobe Illustrator 24.0.2, SVG Export Plug-In . SVG Version: 6.00 Build 0)  -->
<svg version="1.1" id="Слой_1" xmlns="http://www.w3.org/2000/svg" xmlns:xlink="http://www.w3.org/1999/xlink" x="0px" y="0px"
	 viewBox="0 0 24 24" style="enable-background:new 0 0 24 24;" xml:space="preserve" width="19">
<style type="text/css">
	.st24{fill:#C47600;}

	.st27{fill:none;}

</style>
<rect x="2.33" y="2.33" class="st27" width="19.34" height="19.34"/>
<g>
	<path class="st24" d="M19.84,20c-0.41,0-0.75-0.34-0.75-0.75v-3.02l-1.43,1.43c-3.12,3.12-8.2,3.12-11.32,0
		c-0.85-0.85-1.49-1.86-1.89-2.99c-0.14-0.39,0.07-0.82,0.46-0.96c0.39-0.14,0.82,0.07,0.96,0.46c0.32,0.92,0.84,1.74,1.53,2.43
		c2.54,2.54,6.66,2.54,9.2,0l1.43-1.43h-3.02c-0.41,0-0.75-0.34-0.75-0.75s0.34-0.75,0.75-0.75h4.83c0.1,0,0.2,0.02,0.29,0.06
		c0,0,0,0,0,0s0,0,0,0c0.09,0.04,0.17,0.09,0.24,0.16s0.13,0.15,0.16,0.24c0.04,0.09,0.06,0.19,0.06,0.29v4.83
		C20.59,19.67,20.25,20,19.84,20z M18.84,10.33c-0.31,0-0.6-0.19-0.71-0.5C17.81,8.91,17.29,8.1,16.6,7.4
		c-2.54-2.54-6.66-2.53-9.2,0L5.97,8.83h3.02c0.41,0,0.75,0.34,0.75,0.75s-0.34,0.75-0.75,0.75H4.16c-0.1,0-0.2-0.02-0.28-0.06
		c0,0,0,0,0,0c0,0,0,0,0,0c-0.08-0.03-0.16-0.08-0.23-0.15l0,0c0,0,0,0,0,0c-0.01-0.01-0.02-0.02-0.03-0.03v0c0,0,0,0,0,0
		C3.55,10.03,3.5,9.95,3.47,9.87c0,0,0,0,0,0l0,0C3.43,9.78,3.41,9.69,3.41,9.58V4.75C3.41,4.33,3.75,4,4.16,4s0.75,0.34,0.75,0.75
		v3.02l1.43-1.43c3.12-3.12,8.2-3.12,11.32,0c0.85,0.85,1.49,1.86,1.89,2.99c0.14,0.39-0.07,0.82-0.46,0.96
		C19.01,10.32,18.92,10.33,18.84,10.33z"/>
</g>
</svg>
