<?xml version="1.0" encoding="utf-8"?>
<!-- Generator: Adobe Illustrator 24.0.2, SVG Export Plug-In . SVG Version: 6.00 Build 0)  -->
<svg version="1.1" id="Слой_1" xmlns="http://www.w3.org/2000/svg" xmlns:xlink="http://www.w3.org/1999/xlink" x="0px" y="0px"
	 viewBox="0 0 24 24" style="enable-background:new 0 0 24 24;" xml:space="preserve" width="19">
<style type="text/css">
	.st10{fill:#C93E3E;}
</style>
<g>
	<path class="st10" d="M18.6,2.65H5.4c-1.52,0-2.75,1.23-2.75,2.75V18.6c0,1.52,1.23,2.75,2.75,2.75H18.6
		c1.52,0,2.75-1.23,2.75-2.75V5.4C21.35,3.89,20.11,2.65,18.6,2.65z M19.85,18.6c0,0.69-0.56,1.25-1.25,1.25H5.4
		c-0.69,0-1.25-0.56-1.25-1.25V5.4c0-0.69,0.56-1.25,1.25-1.25H18.6c0.69,0,1.25,0.56,1.25,1.25V18.6z"/>
	<path class="st10" d="M16.28,7.72c-0.29-0.29-0.77-0.29-1.06,0l-3.09,3.09L9.04,7.72c-0.29-0.29-0.77-0.29-1.06,0
		s-0.29,0.77,0,1.06l3.09,3.09l-3.09,3.09c-0.29,0.29-0.29,0.77,0,1.06c0.15,0.15,0.34,0.22,0.53,0.22s0.38-0.07,0.53-0.22
		l3.09-3.09l3.09,3.09c0.15,0.15,0.34,0.22,0.53,0.22s0.38-0.07,0.53-0.22c0.29-0.29,0.29-0.77,0-1.06l-3.09-3.09l3.09-3.09
		C16.57,8.49,16.57,8.02,16.28,7.72z"/>
</g>
</svg>
